<svg xmlns="http://www.w3.org/2000/svg" xmlns:xlink="http://www.w3.org/1999/xlink" viewBox="0 0 894.09 169.41"><defs><style>.cls-1{fill:none;}.cls-2{clip-path:url(#clip-path);}.cls-3{fill:#fff;}.cls-4{fill:#ffb300;}.cls-5{clip-path:url(#clip-path-2);}</style><clipPath id="clip-path" transform="translate(7.64 22.01)"><rect class="cls-1" width="432" height="288"/></clipPath><clipPath id="clip-path-2" transform="translate(7.64 22.01)"><rect class="cls-1" x="432" width="432" height="288"/></clipPath></defs><g id="Camada_2" data-name="Camada 2"><g id="Layer_1" data-name="Layer 1"><g class="cls-2"><path class="cls-3" d="M441.66,21.14h-449v118c1.88-.91,3.89-1.31,5.28.1,1.93-.28,3.7.48,5.46.57,1.76-.19,3.52,1.42,5.42.4,1.61-2.43,2.78-2.67,4.33-1,2-.44,3.62.39,5.49.85,1.55.13,3.64,2.25,5.75,1.84,2.1,0,4.23-2,5.86,0,1.08.73,1,.63,1.85-2.54,1.39-3,.84-.1,1.92-1.13,1-1.4,2.16-3.53,3.41-1.62,1.71-.49,3.37,2.34,5.1-.14,2.32-2,4.27-.47,6.64-1,1.58.89,3.21,4.91,4.78,0,2.1-4.75,2,2.47,3.75-1.79,1.86-1.24,3.75-3.08,5.86-1,2.14,1.36,4.14,1.62,6.12-.95,2,.4,4-2.67,6-1.69.7,3.67,2.18.67,2.93-.82.66-2.3,1,0,1.67-1.75,2.16-3.22,4.94-3.51,7,.65,1.57-1.31,2.92,2.24,4.32,2.38,1.39,2,2.84,1.66,4.61,1.26,2,1.65,4.09,2,6.12-.05,2,5.35,3.82,2.33,5.65.89,1.83.41,3.65,1.57,5.55,1,1.6.77,4.24,1.68,5.82-.07,1.54,1,2.71-2.6,4.4-1.79,2.34-2.63,4.74-2.39,7.13-1.41,2.4,1.88,4.78-.08,7.08-1.6,2.06-1.86,4.25,1,6.47-.81,2.22,1.56,4.47-3.39,6.66.11,1.78.55,3.59-2.56,5.38-.06,1.79-1.33,3.57-.82,5.29.51,1.85.48,3.62,1.14,5.37,1.54,1.75-1.11,3.48,1.4,5.25,2,1.39,1,2.19.23,3.65.63a10.79,10.79,0,0,0,4.83,1.93c2.26.27,4.82-1.72,7.41,1.63,2.6-1.3,5.24,2,7.67.17,4,1.12,7.87,2.61,11.75.47,3.89.95,7.78,2.5,11.77.46a56,56,0,0,1,11.51,0c5.75-.1,11.51-.64,11.51,0,1.78-1.29,3.69-.47,5.58-.16s3.79-1.27,5.54.36c.38.1.79-.92,1.27.78.69,1.38,1.48-.09,2.17-.13,1.55-1.2,2.64,1.84,4.15,2.16,1.16-1.8,2.8.56,4,1.35,1.1,2.67,1.74,3.36,2.67,2.14,1.08.89,3.14,1.62,4.44,2.64,1.7,2.08,3.88-.3,5.63.14,2.29-.06,4.48,1.07,6.65-.18,2.17-1.87,4.31,1.13,6.51-1.5.06.84,1.4-1.27,1.68-.33.48.73.6-1.36,1.08-1.75,1.08.78.95-2.47,1.91-.88.91-1.16,2,.17,2.94-1.7,1.75.32,4.64-.42,6.51-.16,2,1.26,4,.46,6,0,1.59,1.59,3.46-1.86,5.32-.31,1.87-.13,3.72-.68,5.26.24,1.54,2.94,2.21,5.21,4.1,2,2,1.09,4.27.64,6.33-.07,1.89.08,3.47-.88,5.29-.63,2.65.57,4.3-2.71,7-3.28,1.84-4.29,3.2-6,5.08-1.67.68,1.17,1.88,3.44,2.59-.06,1.83-.23,2.34,2.42,4,1.77,1.66-.15,3.57-.38,5.31.59,1.84-2.12,3.23,1.86,5.06,1.44,2.25-1.64,4.49,1.25,6.72,0,2.22-1.44,4.42,2.61,6.59-.87,2.17,4.21,4.29-2.92,6.41-.21,2.12.17,4.24.87,6.39-.79a13,13,0,0,0,6.61-2.05c2.39,1.7,4.79-1.46,6.75-.57,1.37-2.84,3.07,3.37,4.34,1,1-1.26,1.84,3.93,2.9,1.6,1.76-.49,4.13.09,5.95.05,2.36-1.5,4.72-.1,7.09,0,2.36.44,4.72-.47,7.08,0,3,3.11,5.68-2.09,8.43-1.49V21.14Z" transform="translate(7.64 22.01)"/><path class="cls-4" d="M441.66-2.52h-449V131c.49,2,1.25,1,1.76-.77,1.59.45,3.66-1.43,5.25-.13,1.34-1.32,2.53-.37,3.87.83,1.9.2,3.11,2.3,4.9,1.81a2.35,2.35,0,0,0,3.27.09c1.66-.09,1.26-2.74,2.38-1.41,1.51-3.32,3.39-.77,5-1.59,1.65.87,3.06-.06,3.63-3.55.93-2.83,2.62-2,6.58-2.5,2.73-1.89,5.32.79,8.29,1.6,1.58,3.48,3.18,4.41,4.76,0,2.69,2.38,4.24,1.71,6.65,1.95,1.88.9,4.13.86,6.35,1.1,2.21,3.26,4.4-1.24,6.16-1.38,3.4-1.68,6.95-3.8,10.57-3.08,3.63,1.67,7.35-.16,11.11-.4,2.22-.38,5.21.92,7.24-.66,1.81,2,2.68-2.14,4.85-2.59,3-1,5.76-2.35,8.6-2.37,2.84,1,5.72-2.34,8.81-.89,3-1,5.71-1.53,8.66.89,1.62-.68,3.3,1.88,5,1.46,1.71,2,3.44.78,5.16.48,1.14.82,2-1.45,3.07-.89,2.43-2.47,5.51.18,8-.08,1.63.59,3.34,1.45,5.05-.16,1.71,2.06,3.42,1.32,5,.12a5.86,5.86,0,0,1,6.39,1.86c2.08-2.16,4.08-1.48,6,2.9,1.63,3.87,3.54.27,5.49,1,2-.62,3.93-.11,5.72-.17,1.71.35,3.94.87,5.53.1,1.15,1.46,1.65,2,2.7,2.29,1.23.62,2.67,2.94,4,.87,3.57,2.94,7.33-.12,11.1.69s7.55-.48,11.18-.24c1.87-1,3.84,3.25,5.81.17,2,1.94,3.92-2,5.76-.38,2.32,1.28,4.6-1.1,6.89-.76,2.28-.25,4.56.5,6.86.74,1.28,3.26,2.47-1.55,3.65,1.08,2.3.15,4.74.69,7,.21,2.17,1.72,4,2,6.18,2.67,2.54-1.12,5.25-.13,7.84,1.65,3-.29,6-1.71,9.05,1.72,3-.08,6.09.07,9.14-.14,1.88-3.28,4,.32,6.18-.58,2.17.91,4.37.36,6.43.11,2,.94,3.76.15,5.4-.4,1.63-1.87,3.17-.89,4.81-2.28,2.1-1.11,3.94-.71,6.33-2.05,2.06-1.27,3.66-3.66,5.9-1.83a10.29,10.29,0,0,0,5.87,0c2.89-1,4.85,1.06,7.58,2,1.6,1.27,3.34-1,5.09.15s3.52,2.42,5.14-.22c3-2.16,5.3.12,8.11.91,2,.67,2.68.37,4.6,1.82,2,1.71,4.49.83,6.5,1,2.09,1.26,4.25,1,6.41.12a9.25,9.25,0,0,1,6.41-.16c2.16,1.63,5.16,2.73,7.1-.55,2.24-2.69,2.56-2.45,5.15-1.51,2.39.52,4.76.73,7.13-.69,2.38.73,4.78,1.23,7.23,0,1.77-3.68,3.53,2.61,5.3,0,1.77.86,3.54-.27,5.31,0,3.61,2.21,4.13-2.11,6.79-1.63,1.61,1.13,3.3-1.63,5.06-1.89a9.8,9.8,0,0,1,5.43-.18c2.1-.68,5.72,1.34,7.75,2.56,2.93-1,3.72-4.8,6.68-4.4,1.26-1.81,2.2.19,3-.67V-2.52Z" transform="translate(7.64 22.01)"/><path d="M361.27-2.52,268.72,134.16a8.44,8.44,0,0,1,1.13,1.06c3-.08,6.09.07,9.14-.14,1.88-3.28,4,.32,6.18-.58,2.17.91,4.37.36,6.43.11,1.77.82,3.3.33,4.75-.18l92.73-137Zm-52.38,0L220.78,127.61a1.53,1.53,0,0,1,1.57.3c2.32,1.28,4.6-1.1,6.89-.76,2.28-.25,4.56.5,6.86.74,1.28,3.26,2.47-1.55,3.65,1.08,2.3.15,4.74.69,7,.21.17.14.34.25.5.36L336.7-2.52Zm104.75,0L324.73,128.79a19.91,19.91,0,0,0,2.76,1.25c1.6,1.27,3.34-1,5.09.15s3.52,2.42,5.14-.22c3-2.16,5.3.12,8.11.91,1.9.62,2.6.43,4.24,1.57l91.38-135Zm-40.85,137.7a3.63,3.63,0,0,0,4.06-2c2.24-2.69,2.56-2.45,5.15-1.51,2.39.52,4.75.73,7.13-.69,2.38.73,4.78,1.23,7.23,0,1.77-3.68,3.53,2.61,5.3,0a3.48,3.48,0,0,0,1.62.32l38.38-56.68V33.45ZM256.52-2.52l-86,127.08.1,0c2-.62,3.93-.11,5.72-.17,1.71.35,3.94.87,5.53.1,1.15,1.46,1.65,2,2.7,2.29,1.23.62,2.67,2.94,4,.87,2.3,1.9,4.69,1.3,7.1.85l88.73-131Zm-52.38,0L122.63,117.87c1.22.42,2.48,1.76,3.75,1.45,1.71,2,3.44.78,5.16.48,1.14.82,2-1.45,3.07-.89,2.43-2.47,5.51.18,8-.08,1.63.59,3.34,1.45,5.05-.16a3.57,3.57,0,0,0,1.48,1.13L232-2.52Zm-209.5,0L-7.64,0l.29,41.49,29.8-44ZM47.14-4-1.32,69.13-7.47,118,74.94-3.92ZM151.77-2.52l-86.4,127.6a11.26,11.26,0,0,1,6.74-1.2c3.63,1.67,7.35-.16,11.11-.4,2.22-.38,5.21.92,7.24-.66,1.81,2,2.68-2.14,4.85-2.59.52-.18,1-.37,1.53-.56L179.58-2.52Zm-52.38,0L7.8,132.76a2,2,0,0,0,.63-.07,2.35,2.35,0,0,0,3.27.09c1.66-.09,1.26-2.74,2.38-1.41,1.51-3.32,3.39-.77,5-1.59,1.65.87,3.06-.06,3.63-3.55.93-2.83,2.62-2,6.58-2.5,2.73-1.89,5.32.79,8.29,1.6A8.91,8.91,0,0,0,39,127.68L127.2-2.52Z" transform="translate(7.64 22.01)"/></g><g class="cls-5"><path class="cls-3" d="M873.66,21.14h-449v118c1.88-.91,3.89-1.31,5.28.1,1.93-.28,3.7.48,5.46.57,1.76-.19,3.52,1.42,5.42.4,1.61-2.43,2.78-2.67,4.33-1,2-.44,3.62.39,5.49.85,1.55.13,3.64,2.25,5.75,1.84,2.1,0,4.23-2,5.86,0,1.08.73,1,.63,1.85-2.54,1.39-3,.84-.1,1.92-1.13,1-1.4,2.16-3.53,3.41-1.62,1.71-.49,3.37,2.34,5.1-.14,2.32-2,4.27-.47,6.64-1,1.58.89,3.21,4.91,4.78,0,2.1-4.75,2,2.47,3.75-1.79,1.86-1.24,3.75-3.08,5.86-1,2.14,1.36,4.14,1.63,6.12-.95,2,.4,3.95-2.67,6-1.69.7,3.67,2.18.67,2.93-.82.66-2.3,1,0,1.67-1.75,2.16-3.22,4.94-3.51,7,.65,1.57-1.31,2.92,2.24,4.32,2.38,1.39,2,2.84,1.66,4.61,1.26,2,1.65,4.09,2,6.12-.05,2,5.35,3.82,2.33,5.65.89,1.83.41,3.65,1.57,5.55,1,1.6.77,4.24,1.68,5.82-.07,1.54,1,2.71-2.6,4.4-1.79,2.34-2.63,4.74-2.39,7.13-1.41,2.4,1.88,4.78-.08,7.08-1.6,2.06-1.86,4.25,1,6.47-.81,2.22,1.56,4.47-3.39,6.66.11,1.78.55,3.59-2.56,5.38-.06,1.79-1.33,3.57-.82,5.29.51,1.85.48,3.62,1.14,5.37,1.54,1.75-1.11,3.48,1.4,5.25,2,1.39,1,2.19.23,3.65.63a10.79,10.79,0,0,0,4.83,1.93c2.26.27,4.82-1.72,7.42,1.63,2.59-1.3,5.23,2,7.66.17,4,1.12,7.87,2.61,11.75.47,3.89.95,7.78,2.5,11.77.46a56,56,0,0,1,11.51,0c5.75-.1,11.51-.64,11.51,0,1.78-1.29,3.69-.47,5.58-.16s3.79-1.27,5.54.36c.38.1.79-.92,1.27.78.69,1.38,1.48-.09,2.17-.13,1.55-1.2,2.64,1.84,4.15,2.16,1.16-1.8,2.8.56,4,1.35,1.1,2.67,1.74,3.36,2.67,2.14,1.08.89,3.14,1.62,4.44,2.64,1.7,2.08,3.88-.3,5.63.14,2.29-.06,4.48,1.07,6.65-.18,2.17-1.87,4.31,1.13,6.51-1.5.06.84,1.4-1.27,1.68-.33.48.73.6-1.36,1.08-1.75,1.08.78,1-2.47,1.91-.88.91-1.16,2,.17,2.94-1.7,1.75.32,4.64-.42,6.51-.16,2,1.26,4,.46,6,0,1.59,1.59,3.46-1.86,5.32-.31,1.87-.13,3.72-.68,5.26.24,1.54,2.94,2.21,5.21,4.1,2,2,1.09,4.27.64,6.33-.07,1.89.08,3.47-.88,5.29-.63,2.65.57,4.3-2.71,7-3.28,1.84-4.29,3.2-6,5.08-1.67.68,1.17,1.88,3.44,2.59-.06,1.83-.23,2.34,2.42,4,1.77,1.66-.15,3.57-.38,5.31.59,1.84-2.12,3.23,1.86,5.06,1.44,2.25-1.64,4.49,1.25,6.72,0,2.22-1.44,4.42,2.61,6.59-.87,2.17,4.21,4.29-2.92,6.41-.21,2.12.17,4.24.87,6.39-.79a13,13,0,0,0,6.61-2.05c2.39,1.7,4.79-1.46,6.75-.57,1.37-2.84,3.07,3.37,4.34,1,1-1.26,1.84,3.93,2.9,1.6,1.76-.49,4.13.09,5.95.05,2.36-1.5,4.72-.1,7.09,0,2.36.44,4.72-.47,7.08,0,3,3.11,5.68-2.09,8.43-1.49V21.14Z" transform="translate(7.64 22.01)"/><path class="cls-4" d="M873.66-2.52h-449V131c.49,2,1.25,1,1.76-.77,1.59.45,3.66-1.43,5.25-.13,1.34-1.32,2.53-.37,3.87.83,1.9.2,3.11,2.3,4.9,1.81a2.35,2.35,0,0,0,3.27.09c1.66-.09,1.26-2.74,2.38-1.41,1.51-3.32,3.39-.77,5-1.59,1.65.87,3.06-.06,3.63-3.55.93-2.83,2.62-2,6.58-2.5,2.73-1.89,5.32.79,8.29,1.6,1.58,3.48,3.18,4.41,4.76,0,2.69,2.38,4.24,1.71,6.65,1.95,1.88.9,4.13.86,6.35,1.1,2.21,3.26,4.4-1.24,6.16-1.38,3.4-1.68,6.95-3.8,10.57-3.08,3.63,1.67,7.35-.16,11.11-.4,2.22-.38,5.21.92,7.24-.66,1.81,2,2.68-2.14,4.85-2.59,3-1,5.76-2.35,8.6-2.37,2.84,1,5.72-2.34,8.81-.89,3-1,5.71-1.53,8.66.89,1.62-.68,3.3,1.88,5,1.46,1.71,2,3.44.78,5.16.48,1.14.82,2-1.45,3.07-.89,2.43-2.47,5.51.18,8-.08,1.63.59,3.34,1.45,5-.16,1.71,2.06,3.42,1.32,5,.12a5.86,5.86,0,0,1,6.39,1.86c2.08-2.16,4.08-1.48,6,2.9,1.63,3.87,3.54.27,5.49,1,1.95-.62,3.93-.11,5.72-.17,1.71.35,3.94.87,5.53.1,1.15,1.46,1.65,2,2.7,2.29,1.23.62,2.67,2.94,4,.87,3.57,2.94,7.33-.12,11.1.69s7.55-.48,11.18-.24c1.87-1,3.84,3.25,5.81.17,2,1.94,3.92-2,5.76-.38,2.32,1.28,4.6-1.1,6.89-.76,2.28-.25,4.56.5,6.86.74,1.28,3.26,2.47-1.55,3.65,1.08,2.3.15,4.74.69,7,.21,2.17,1.72,4,2,6.18,2.67,2.54-1.12,5.25-.13,7.84,1.65,3-.29,6-1.71,9.05,1.72,3-.08,6.09.07,9.14-.14,1.88-3.28,4,.32,6.18-.58,2.17.91,4.37.36,6.43.11,2,.94,3.76.15,5.4-.4,1.63-1.87,3.17-.89,4.81-2.28,2.1-1.11,3.94-.71,6.33-2.05,2.06-1.27,3.66-3.66,5.9-1.83a10.29,10.29,0,0,0,5.87,0c2.89-1,4.85,1.06,7.58,2,1.6,1.27,3.34-1,5.09.15s3.52,2.42,5.14-.22c3-2.16,5.3.12,8.11.91,2,.67,2.68.37,4.6,1.82,2,1.71,4.49.83,6.5,1,2.09,1.26,4.25,1,6.41.12a9.25,9.25,0,0,1,6.41-.16c2.16,1.63,5.16,2.73,7.1-.55,2.24-2.69,2.56-2.45,5.15-1.51,2.39.52,4.76.73,7.13-.69,2.38.73,4.78,1.23,7.23,0,1.77-3.68,3.53,2.61,5.3,0,1.77.86,3.54-.27,5.31,0,3.61,2.21,4.13-2.11,6.79-1.63,1.61,1.13,3.3-1.63,5.06-1.89a9.8,9.8,0,0,1,5.43-.18c2.1-.68,3.93-2.16,6-.94a17.92,17.92,0,0,1,8.46-.9c1.26-1.81,2.2.19,3-.67V-2.52Z" transform="translate(7.64 22.01)"/><path d="M793.27-2.52,700.72,134.16a8.44,8.44,0,0,1,1.13,1.06c3-.08,6.09.07,9.14-.14,1.88-3.28,4,.32,6.18-.58,2.17.91,4.37.36,6.43.11,1.77.82,3.3.33,4.75-.18l92.73-137Zm-52.38,0L652.78,127.61a1.53,1.53,0,0,1,1.57.3c2.32,1.28,4.6-1.1,6.89-.76,2.28-.25,4.56.5,6.86.74,1.28,3.26,2.47-1.55,3.65,1.08,2.3.15,4.74.69,7,.21.17.14.34.25.5.36L768.7-2.52Zm117.18,0L767.32,131.25a21.2,21.2,0,0,0,2.81,1.27c1.64,1.29,3.42-1,5.21.15s3.58,2.46,5.24-.22a6.91,6.91,0,0,0,4.24,2.26c1.9.17,3-.78,4.42,0,1.12.62,1.27,1.72,2.11,1.76s1.42-.83,1.83-1.5L886.45-2.53ZM820.74,131.71a18,18,0,0,0,4.58,1,22.25,22.25,0,0,0,6.62-.52,50.07,50.07,0,0,0,6.62-1.68,15.16,15.16,0,0,0,1.52,1.54c1.23,1.1,2.31,2,3.34,1.8a1.34,1.34,0,0,0,.83-.64,3.47,3.47,0,0,0,1.62.31l38.38-56V37Zm49.94-6.35c1.26-1.81,2.21.19,3-.67V110.81l-10.21,15.08A17.13,17.13,0,0,1,870.68,125.36ZM688.52-2.52l-86,127.08.1,0c1.95-.62,3.93-.11,5.72-.17,1.71.35,3.94.87,5.53.1,1.15,1.46,1.65,2,2.7,2.29,1.23.62,2.67,2.94,4,.87,2.3,1.9,4.69,1.3,7.1.85l88.73-131Zm-52.38,0L554.63,117.87c1.22.42,2.48,1.76,3.75,1.45,1.71,2,3.44.78,5.16.48,1.14.82,2-1.45,3.07-.89,2.43-2.47,5.51.18,8-.08,1.63.59,3.34,1.45,5-.16a3.57,3.57,0,0,0,1.48,1.13L664-2.52ZM426.64-22l-2,3V22l29.8-44Zm52.39.28-54.37,80.3V99.64L506.84-21.73ZM583.77-2.52l-86.4,127.6a11.26,11.26,0,0,1,6.74-1.2c3.63,1.67,7.35-.16,11.11-.4,2.22-.38,5.21.92,7.24-.66,1.81,2,2.68-2.14,4.85-2.59.52-.18,1-.37,1.53-.56L611.58-2.52Zm-52.38,0L439.8,132.76a2,2,0,0,0,.63-.07,2.35,2.35,0,0,0,3.27.09c1.66-.09,1.26-2.74,2.38-1.41,1.51-3.32,3.39-.77,5-1.59,1.65.87,3.06-.06,3.63-3.55.93-2.83,2.62-2,6.58-2.5,2.73-1.89,5.32.79,8.29,1.6a8.91,8.91,0,0,0,1.42,2.35L559.2-2.52Z" transform="translate(7.64 22.01)"/></g></g></g></svg>